<?xml version="1.0" encoding="iso-8859-1"?>
<!-- Generator: Adobe Illustrator 19.0.0, SVG Export Plug-In . SVG Version: 6.00 Build 0)  -->
<svg version="1.1" id="Capa_1" xmlns="http://www.w3.org/2000/svg" xmlns:xlink="http://www.w3.org/1999/xlink" x="0px" y="0px"
	 viewBox="0 0 208.661 208.661" style="enable-background:new 0 0 208.661 208.661;" xml:space="preserve">
<g>
	<path d="M180.734,116.892c-1.007-1.882-0.501-4.233,1.175-5.554c9.77-7.697,10.3-34.01-8.552-34.01h-48.991
		c-9.59,0-15.655-10.324-10.984-18.7c5.74-10.292,9.922-21.717,13.939-34.521C131.661,10.277,122.942,0,112.839,0
		c-5.383,0-11.156,2.911-15.563,9.756C84.603,29.448,75.679,52.075,63.252,64.129c-9.818,9.517-43.171,28.936-43.171,30.14v79.825
		c0,2.254,1.728,4.17,3.956,4.511l28.828,4.403c0.643,0.099,1.283,0.339,1.827,0.696c25.968,17.054,49.343,24.957,68.432,24.957
		c5.144,0,9.981-0.574,14.471-1.697c22.348-5.586,23.769-19.317,22.86-26.447c-0.294-2.302,1.164-4.408,3.406-5.006
		c11.944-3.181,12.495-19.43,8.711-27.308c-1.057-2.201-0.042-4.788,2.108-5.944C183.594,137.467,184.253,123.464,180.734,116.892z"
		/>
</g>
</svg>
